<svg xmlns="http://www.w3.org/2000/svg" viewBox="0 0 342.808 103.86">
  <defs>
    <style>
      .a {
        fill: #1880f8;
      }

      .b {
        fill: #fff;
      }
    </style>
  </defs>
  <path class="a" d="M346.46,59.4a8.913,8.913,0,0,0-5.21-4.5c-2.17-.72-4.59-1.41-7.24-2.06,2.11-8.32,4.26-17.12,6.54-26.75a10.315,10.315,0,0,0-.22-5.93,7.774,7.774,0,0,0-5.61-5.02,9.38,9.38,0,0,0-2.07-.23c-3.85,0-8.52,2.46-9.61,7.02-.67,2.81-1.32,5.55-1.97,8.23a12.234,12.234,0,0,0-2.44-1.97c-.94-.6-2.19-1.37-3.55-2.06a34.052,34.052,0,0,0-8.31-3.15,9.779,9.779,0,0,0-2.27-.27,9.072,9.072,0,0,0-8.16,12.68,9.39,9.39,0,0,0-2.65,2.29,8.892,8.892,0,0,0-1.16-.27l-.18-.03c-1.4-.21-2.88-.4-4.69-.58l-.32-.03c-1.05-.1-2.14-.21-3.23-.29.2-1.6.42-3.16.63-4.7,2.97-.92,5.47-1.72,7.88-2.5a9.087,9.087,0,0,0,5.95-10.6,8.976,8.976,0,0,0-8.77-6.96,8.837,8.837,0,0,0-2.05.24c-2.26.53-4.59,1.14-6.86,1.81-2.47.7-4.81,1.46-6.74,2.1a88.645,88.645,0,0,0-13.59,5.49,8.5,8.5,0,0,0,.15,15.15,25.581,25.581,0,0,0-6.23,1.48l-.93.36a8.386,8.386,0,0,0-5.36,8.52c.01.15.03.29.05.43-.06-.06-.1-.13-.16-.19a21.582,21.582,0,0,0-10.73-6.34,31.927,31.927,0,0,0-4.23-.73l-.68-.08c-1.17-.12-2.56-.26-3.92-.36-.74-.06-1.49-.11-2.22-.16l2.49-6.66c.72.06,1.42.14,2.11.22a107.978,107.978,0,0,1,11.19,1.79,9.555,9.555,0,0,0,1.92.2,9,9,0,0,0,2.28-17.71A98.241,98.241,0,0,0,233,14.81c-4.77-.56-9.07-.86-13.12-.93-1.14-.03-2.27-.04-3.4-.04-3.22,0-6.46.1-9.68.29a71.626,71.626,0,0,0-13.48,2.04,8.471,8.471,0,0,0,2.13,16.67c.13,0,.26-.01.39-.01l11.96-.55c.66-.03,1.32-.06,1.99-.08l-2.62,7c-.65.04-1.28.07-1.9.11-.38.03-.77.05-1.19.08a9,9,0,0,0-7.64-4.25,5.718,5.718,0,0,0-.58.02,9.006,9.006,0,0,0-8.42,8.93c-.07.04-.14.09-.21.13A8.435,8.435,0,0,0,183.8,53a9.279,9.279,0,0,0-.85-.39c.28-2.4.51-4.68.7-6.94l.02-.23a78.424,78.424,0,0,0,.33-8.42l-.01-.1a18.817,18.817,0,0,0-1.5-6.88,15.285,15.285,0,0,0-6.12-6.98,22.346,22.346,0,0,0-10.28-2.79c-.35-.02-.68-.05-1-.08l-.14-.01c-2.85-.19-5.73-.3-8.59-.32-1.48-2.99-2.82-5.51-4.27-8.06a9.017,9.017,0,0,0-7.76-4.64,8.8,8.8,0,0,0-4.31,1.15,9.349,9.349,0,0,0-4.27,5.3,8.857,8.857,0,0,0,.69,7.08c.13.23.26.47.39.7a27.565,27.565,0,0,0-5.55,1.85l-.8.37a8.4,8.4,0,0,0-4.73,9.16c.04.23.09.45.15.68a8.31,8.31,0,0,0-5.5,4.36l-.09.18c-.03,0-.24.02-.24.02.67-2.57,1.43-5.28,2.26-7.82a9.3,9.3,0,0,0-.82-7.25,9.7,9.7,0,0,0-5.38-4.6,8.27,8.27,0,0,0-2.5-.4c-3.74,0-7.13,2.69-8.43,6.69-1.4,4.32-2.93,10.03-4.3,16.05-.97.19-1.89.38-2.77.57a25.815,25.815,0,0,0-9.07,3.46c-5.4-7.14-11.97-10.47-22.22-11.14-.12-.79-.24-1.6-.36-2.44,6.43-.9,12.76-1.53,18.88-1.86l.15-.01a9,9,0,0,0-.74-17.97h-.29c-6.67.29-13.13.84-19.23,1.64l-1.07.15c-.1-.94-.19-1.83-.28-2.69a8.951,8.951,0,0,0-8.94-8.13,8.686,8.686,0,0,0-.89.05,8.988,8.988,0,0,0-8.08,9.83c.12,1.28.26,2.62.42,4.06q-3.135.675-6.24,1.44c-.17-.92-.33-1.84-.49-2.78-.79-4.57-4.28-7.77-8.47-7.77a8.536,8.536,0,0,0-1.43.12,9.829,9.829,0,0,0-5.93,3.64,9.073,9.073,0,0,0-1.91,7.08c.28,1.6.56,3.17.85,4.71A60.122,60.122,0,0,0,9.18,28.8a8.533,8.533,0,0,0,3.86,16.08,8.924,8.924,0,0,0,3.19-.6l.19-.07c3.31-1.4,6.85-2.74,10.56-3.99a67.177,67.177,0,0,0,2.38,6.62,51.143,51.143,0,0,0-8.67,1.7c-6.2,1.79-9.59,7.34-8.43,13.79,1.87,10.37,3.48,18.08,4.93,23.57,1.66,6.28,6.65,10.03,13.34,10.03.24,0,.49-.01.74-.02a91.719,91.719,0,0,0,16.8-2.86,12.915,12.915,0,0,0,2.72-1.1c-.11,1.25-.25,2.47-.43,3.67a9,9,0,0,0,7.56,10.24,8.635,8.635,0,0,0,1.34.1,9.051,9.051,0,0,0,8.89-7.65,82.824,82.824,0,0,0,.84-14.94c1.94-.4,3.89-.76,5.82-1.07,1.25-.2,2.48-.37,3.67-.52.21,3.71.4,7.59.55,11.18a8.975,8.975,0,0,0,9,8.64c.11,0,.22,0,.35-.01a9,9,0,0,0,8.63-9.35c-.32-8.04-.94-19.21-1.61-26.04-.21-2.2-.46-4.22-.75-6.08,1.14-.22,2.29-.44,3.49-.65.85,7.53,6.1,11.52,8.04,12.98a36.965,36.965,0,0,0,8.51,4.68c-.08,1.86-.13,3.5-.15,5.08v.15a8.968,8.968,0,0,0,8.54,9.09c.15,0,.31.01.46.01a8.981,8.981,0,0,0,7.99-4.86,16.837,16.837,0,0,0,3.48,8.42,9.045,9.045,0,0,0,7.09,3.23,9.417,9.417,0,0,0,9.18-7.91,8.577,8.577,0,0,0-1.92-6.2,18.016,18.016,0,0,1-.28-1.9,83.764,83.764,0,0,1,10.27,4.05,116.356,116.356,0,0,1,11.61,6.28l.12.08.12.06a9.218,9.218,0,0,0,4.43,1.16A8.753,8.753,0,0,0,181,92a9.267,9.267,0,0,0,3.23-4.83,8.781,8.781,0,0,0-4.07-10.07l-.13-.08c-2.86-1.62-5.65-3.09-8.4-4.42a93.875,93.875,0,0,1,9.75-2.79,8.917,8.917,0,0,0,7.14-9.75,10.97,10.97,0,0,0-.27-1.41c.12.06.23.13.35.18.95,9.66,2.23,19.04,3.9,28.56a8.983,8.983,0,0,0,8.86,7.45,9.417,9.417,0,0,0,1.56-.14,8.98,8.98,0,0,0,5.33-3.1c2.76.06,5.46.18,7.83.3,2.43.13,4.83.28,7.13.46,2.13.16,4.6.37,6.81.64l.8.12.92.12,1.12.06h.22a13.094,13.094,0,0,0,2.85-.31l.12-.02a12.1,12.1,0,0,0,3.41-1.4,12.852,12.852,0,0,0,4.25-4.27,20.772,20.772,0,0,0,1.47-2.9c.5-1.19.9-2.24,1.31-3.33l.18-.48,1.29-3.56c.67-1.87,1.26-3.61,1.79-5.26A9.264,9.264,0,0,0,251.72,74a9.007,9.007,0,0,0,10.22.76c-.37,4.47-.67,8.7-.9,12.58a9.008,9.008,0,0,0,8.44,9.52c.19.01.36.02.54.02A9.009,9.009,0,0,0,279,88.42c.27-4.49.65-9.52,1.1-14.87,1.24,1.21,2.35,2.37,3.25,3.41a9,9,0,0,0,15.77-5.27,8.912,8.912,0,0,0-1.54-5.7c4.46.16,9.27.54,14.1,1.12-2.64,9.8-5.22,18.81-7.83,27.39a9,9,0,1,0,17.22,5.24c2.8-9.19,5.56-18.88,8.4-29.49,2.27.56,4.31,1.13,6.11,1.73a8.846,8.846,0,0,0,2.84.46,9,9,0,0,0,8.04-13.04ZM49.03,39.37a14.628,14.628,0,0,0-2.16,3.75,8.787,8.787,0,0,0-.77-2.9,46.864,46.864,0,0,1-1.8-4.92c1.49-.36,2.97-.7,4.45-1.02.23,1.6.47,3.12.7,4.59C49.31,39.03,49.17,39.2,49.03,39.37ZM229.79,74.32s-.14.39-.19.52c-1.7-.17-3.35-.3-5.02-.43-2.44-.19-4.91-.34-7.56-.49-2.55-.12-5.46-.25-8.5-.31-.16-1.13-.32-2.26-.47-3.37,3.94.09,7.77.31,11.43.63,4.07.38,7.72.86,11.04,1.45Zm22.85-15.73a16.84,16.84,0,0,0-.83-5.12c-.05-.15-.12-.3-.18-.46a8.347,8.347,0,0,0,4.41,1.63C254.86,55.98,253.73,57.31,252.64,58.59Z" transform="translate(-4.616 -2.26)"/>
  <path class="b" d="M49.574,60.394a13.379,13.379,0,0,0-9.544-8.337c-4.587-1.011-11.8-.5-17.945,1.283-3.785,1.095-5.618,4.124-4.9,8.1,1.842,10.236,3.426,17.821,4.842,23.187,1.077,4.079,4.087,6.3,8.508,6.3.177,0,.358,0,.539-.011a87.063,87.063,0,0,0,15.71-2.7c3.618-.967,6.13-4.674,6.109-9.017a57.273,57.273,0,0,0-3.317-18.807Zm-11.266-.525a5.285,5.285,0,0,1,3.736,3.224q.335.936.633,1.9a80.034,80.034,0,0,0-16.352,1.865c-.365-1.906-.742-3.925-1.131-6.076C29.778,59.6,35.268,59.2,38.308,59.869Zm6.235,20.667a78.008,78.008,0,0,1-13.787,2.388,3.963,3.963,0,0,1-.9-.044,2.693,2.693,0,0,1-.093-.293c-.6-2.279-1.237-5-1.916-8.179A69.547,69.547,0,0,1,44.4,72.735a48.108,48.108,0,0,1,.494,6.5A2.279,2.279,0,0,1,44.543,80.536Z" transform="translate(-4.616 -2.26)"/>
  <path class="b" d="M86.141,49.21C80.76,41.261,74.616,38.445,62.66,38.445c-.14,0-.271.007-.408.01a3.99,3.99,0,0,0,.055-1.509c-.538-3.383-1.02-6.718-1.472-10.022a231.19,231.19,0,0,1,24.25-2.647,4,4,0,0,0-.389-7.99c-6.3.272-12.561.785-18.786,1.6-2.042.271-4.081.575-6.117.9-.316-2.675-.612-5.324-.865-7.913a4,4,0,1,0-7.962.778c.273,2.789.594,5.646.938,8.531Q44.031,21.712,36.279,23.8q-.786-3.8-1.528-8.084c-.376-2.177-1.947-3.952-4.121-3.574s-4.138,2.759-3.762,4.935c.477,2.759,1.047,5.826,1.7,8.961-1.3.406-2.61.814-3.907,1.246a56.3,56.3,0,0,0-12.96,5.831A3.527,3.527,0,0,0,14.473,39.6a163.092,163.092,0,0,1,15.916-5.726,75.289,75.289,0,0,0,3.872,11.706,4,4,0,0,0,7.288-3.3A68.229,68.229,0,0,1,38.09,31.7q5.455-1.43,10.981-2.6c1.291-.27,2.585-.526,3.88-.777.449,3.261.925,6.549,1.454,9.883a3.973,3.973,0,0,0,1.024,2.081,9.744,9.744,0,0,0-2.483,2.2,10.889,10.889,0,0,0-1.76,9.432c4.595,19.85,5.825,33.144,4.113,44.45a4,4,0,0,0,3.357,4.554,4.112,4.112,0,0,0,.6.046,4,4,0,0,0,3.951-3.4,82.543,82.543,0,0,0,.583-18.157c3.366-.807,6.794-1.492,10.233-2.042,3.044-.482,6.1-.861,9.13-1.084.361,5.481.671,11.571.868,16.483a4,4,0,1,0,7.993-.32c-.319-7.972-.934-19.029-1.59-25.76C89.574,57.925,88.172,52.21,86.141,49.21ZM79.516,53.7a9.706,9.706,0,0,1,1.049,2.536,70.753,70.753,0,0,0-8.692-1.189,84.516,84.516,0,0,0-11.8-.026c-.344-1.6-.7-3.223-1.091-4.907a3.259,3.259,0,0,1,.229-2.649c.512-.645,1.771-1.015,3.451-1.015C72.883,46.445,76.122,48.681,79.516,53.7ZM72.987,69.949c-3.345.412-6.667.936-9.99,1.582q-.543-4.158-1.384-8.761a76.81,76.81,0,0,1,9.922-.216,58.635,58.635,0,0,1,10.533,1.388c.138,1.063.272,2.231.4,3.515.052.536.1,1.109.155,1.7C79.37,69.281,76.17,69.565,72.987,69.949Z" transform="translate(-4.616 -2.26)"/>
  <path class="b" d="M143.353,72.169l-.069-1.141c-.125-2.047-.332-6-.566-10.658.286.006.568.013.866.013,8.086,0,20.443-1.943,25.391-3.5a3.931,3.931,0,0,0,1.985-1.651,3.98,3.98,0,0,0,6.9-2.215c.312-2.578.581-5.143.8-7.744a73.966,73.966,0,0,0,.336-8.12,14.232,14.232,0,0,0-1.123-5.189,10.239,10.239,0,0,0-4.046-4.6c-3.436-2.026-6.8-1.973-9.215-2.2q-5.7-.384-11.364-.291c-2.022-4.194-3.685-7.4-5.511-10.607a3.8,3.8,0,0,0-5.246-1.609,4.2,4.2,0,0,0-1.709,5.562c1.274,2.24,2.469,4.489,3.783,7.117q-1.742.169-3.484.376a26.237,26.237,0,0,0-7.7,2.057l-.793.367a3.421,3.421,0,0,0,.911,6.485c.32,7.679,1.18,25.664,1.637,34.056a49.817,49.817,0,0,1-6.6-.928c.689-8.6,1.569-17.195,2.686-25.724a3.376,3.376,0,0,0-6.36-1.963l-.528,1.044a15.12,15.12,0,0,0-.723,1.711c-1.273-.026-2.631.137-3.844.229-2.082.164-4.157.39-6.228.646,1.125-4.943,2.53-10.415,4.034-15.052a4.819,4.819,0,0,0-2.985-5.547c-2.1-.683-3.942.977-4.624,3.078-1.806,5.568-3.589,12.734-4.9,18.808-1.977.355-3.95.736-5.914,1.161a20.027,20.027,0,0,0-7.908,3.115c-1.339.816-2.708,2.045-2.3,3.824a3.009,3.009,0,0,0,3.538,2.364c3.619-.72,7.275-1.356,10.944-1.938-.113.711-.211,1.364-.277,1.9C102.3,62.275,105.936,66,109.2,68.47A37.228,37.228,0,0,0,119.867,73.7c-.16,2.852-.289,5.708-.327,8.572l0,.14a4,4,0,0,0,7.993.247c.117-2.3.271-4.592.419-6.889a54.883,54.883,0,0,0,7.669.947c.586,9.159,1.03,12.386,3.276,15.148a4.083,4.083,0,0,0,3.2,1.378,3.8,3.8,0,0,0,2.427-.8c2.185-1.662,2.392-3.513.581-5.627C144.144,85.7,143.882,80.881,143.353,72.169ZM111.085,56.39c.116-.946.349-2.375.668-4.105q5.135-.693,10.277-1.233c-.01.072-.018.146-.029.219q-.651,5.144-1.2,10.3c-.125,1.293-.231,2.588-.338,3.882a26.2,26.2,0,0,1-6.427-3.354C111.473,60.155,110.785,58.821,111.085,56.39Zm31.249-3.835c-.077-1.6-.154-3.2-.229-4.779a75.449,75.449,0,0,1,23.834,1.869C160.893,51.044,148.789,52.785,142.334,52.555Zm21.777-19.39,1.833.132c.578.047,1.047.1,1.533.183a6.462,6.462,0,0,1,2.185.718,2.145,2.145,0,0,1,.915,1.043,6.425,6.425,0,0,1,.428,2.24,61.01,61.01,0,0,1-.239,6.161c-1.812-.623-3.633-1.139-5.461-1.571a86.961,86.961,0,0,0-23.56-2.045c-.116-2.553-.212-4.755-.278-6.363,2.586-.274,5.2-.464,7.815-.586A139.658,139.658,0,0,1,164.111,33.165Z" transform="translate(-4.616 -2.26)"/>
  <path class="b" d="M178.748,57.076a67.3,67.3,0,0,0-8.2,2.434c-2.593.921-5.128,1.915-7.641,2.96a121.786,121.786,0,0,0-14.882,7.249,3.992,3.992,0,0,0,.91,7.239,86.415,86.415,0,0,1,12.532,4.8,120.446,120.446,0,0,1,12.117,6.552c4.65,2.513,8.487-4.209,3.982-6.941a121.761,121.761,0,0,0-19.049-8.891,113.577,113.577,0,0,1,21.806-7.561A4,4,0,1,0,178.748,57.076Z" transform="translate(-4.616 -2.26)"/>
  <path class="b" d="M245.02,22.122a93.249,93.249,0,0,0-12.6-2.346c-4.214-.492-8.43-.826-12.649-.9s-8.432-.007-12.645.244a67.7,67.7,0,0,0-12.553,1.885,3.47,3.47,0,0,0,1.031,6.826h.006l11.953-.55q4.716-.222,9.448-.14l-6.323,16.926c-1.7.051-3.394.125-5.1.235-1.265.081-2.525.175-3.8.359-.428.042-.859.114-1.29.18-.021-.323-.047-.637-.068-.962a4,4,0,0,0-7.984.515c.055.855.12,1.69.179,2.536a15.648,15.648,0,0,0-2.566,1.418,3.389,3.389,0,0,0,2.99,6.01l.154-.052c.968,11.023,2.335,21.464,4.217,32.219a4,4,0,0,0,3.936,3.31,4.1,4.1,0,0,0,.695-.06,3.992,3.992,0,0,0,3.23-3.207c3.641,0,7.368.151,11.066.338q3.627.194,7.249.466c2.4.185,4.849.392,7.1.674l.791.117.721.1.8.042a8.36,8.36,0,0,0,1.856-.194,7.028,7.028,0,0,0,2.006-.814,7.9,7.9,0,0,0,2.588-2.625,15.647,15.647,0,0,0,1.108-2.2c.541-1.29.954-2.407,1.4-3.594l1.282-3.517c.834-2.352,1.635-4.719,2.383-7.138.375-1.209.731-2.437,1.065-3.7.163-.638.327-1.271.471-1.946.075-.327.148-.664.21-1.028s.138-.657.179-1.14a12.068,12.068,0,0,0-.5-5.379,12.9,12.9,0,0,0-2.677-4.564,16.694,16.694,0,0,0-8.257-4.856,31.738,31.738,0,0,0-4.208-.681c-1.283-.135-2.543-.258-3.795-.347-2.51-.2-5-.326-7.5-.438-.469-.019-.94-.026-1.41-.04l6.2-16.611c2.023.132,4.039.3,6.045.531a114.991,114.991,0,0,1,11.66,1.866l.032.008a4,4,0,0,0,1.862-7.78Zm-9.31,50.562-1.237,3.395c-.416,1.108-.86,2.289-1.268,3.26-.157.373-.313.7-.438.929l-1.015-.151c-2.619-.327-5.055-.526-7.548-.721s-4.954-.345-7.434-.478c-4.159-.207-8.3-.368-12.551-.335-.7-4.467-1.321-8.913-1.856-13.4,5.87-.02,11.751.2,17.576.715A115.885,115.885,0,0,1,237.1,68.61Q236.429,70.648,235.71,72.684Zm-8.149-20.063c1.195.074,2.378.182,3.534.293a22.955,22.955,0,0,1,3.055.452,8.783,8.783,0,0,1,4.274,2.443,4.3,4.3,0,0,1,1.195,3.61,5.885,5.885,0,0,1-.107.675c-.039.242-.095.5-.159.774-.035.166-.084.345-.125.516-12.2-3.252-25.1-4.86-37.637-3.336q-.266-2.667-.5-5.381l1.352-.117c1.159-.115,2.348-.166,3.531-.23,4.745-.225,9.573-.216,14.385-.06C222.768,52.348,225.18,52.448,227.561,52.621Z" transform="translate(-4.616 -2.26)"/>
  <path class="b" d="M277,53.84q.246-2.264.5-4.518c4.449.14,8.887.4,13.255.859a3.948,3.948,0,0,0,1.011-7.829l-.171-.027c-1.473-.225-2.948-.4-4.421-.548s-2.944-.3-4.417-.37c-1.431-.08-2.862-.156-4.292-.216.57-4.6,1.164-9.057,1.769-13.252,3.614-1.107,7.226-2.234,10.812-3.408a4,4,0,0,0-2.158-7.7q-3.357.783-6.646,1.757c-2.2.62-4.381,1.32-6.554,2.042A81.685,81.685,0,0,0,262.873,25.8a3.5,3.5,0,0,0,2.456,6.493l.036-.009c2.151-.528,4.292-1.118,6.425-1.748-.469,3.408-.929,6.948-1.374,10.576-1.768.023-3.537.06-5.309.124a25.869,25.869,0,0,0-8.825,1.426l-.928.357a3.438,3.438,0,0,0,1.509,6.632c3.581-.277,7.249-.394,10.93-.427-4.752,4.951-9.756,10.594-13.528,15.266a4,4,0,0,0,6.225,5.025c2.245-2.781,4.952-5.926,7.774-9.053-.965,9.643-1.75,19.074-2.237,27.18a4,4,0,0,0,3.753,4.233c.082,0,.163.007.244.007a4,4,0,0,0,3.989-3.76c.448-7.456,1.153-16.051,2.017-24.892a97.351,97.351,0,0,1,11.1,10.458,4,4,0,0,0,6.039-5.246A111.1,111.1,0,0,0,277,53.84Z" transform="translate(-4.616 -2.26)"/>
  <path class="b" d="M339.674,59.642a107.2,107.2,0,0,0-11.785-3.052c2.5-9.739,5.087-20.22,7.8-31.656.511-2.149.033-4.413-2.116-4.924s-5.156.928-5.667,3.078C325.152,34.7,322.534,45.312,320,55.16a179.609,179.609,0,0,0-26.862-2.248h-.6a4,4,0,0,0,.019,8c.209.011.4,0,.6,0a170.523,170.523,0,0,1,24.82,2.018c-3.184,12.038-6.259,22.906-9.339,33.029a4,4,0,1,0,7.655,2.328c3.162-10.395,6.318-21.567,9.586-33.956a100.76,100.76,0,0,1,11.286,2.906,4,4,0,0,0,2.515-7.594Z" transform="translate(-4.616 -2.26)"/>
  <path class="b" d="M303.444,35.547a47.792,47.792,0,0,1,8.758,3.816c2.048,1.013,3.925,3.138,6.274,1.663a3.325,3.325,0,0,0,1.075-4.578A10.732,10.732,0,0,0,316,32.443c-1.051-.668-2.11-1.307-3.213-1.871a29.286,29.286,0,0,0-7.14-2.715C300.563,26.589,298.436,33.938,303.444,35.547Z" transform="translate(-4.616 -2.26)"/>
  <path class="b" d="M300.224,47.118a136.636,136.636,0,0,1,16.993,3.476c2.838.964,5.141-2.985,2.824-4.972l-1.026-.94c-4.954-4.029-11.5-5.1-17.692-5.488a4.054,4.054,0,0,0-4.486,3.421A3.984,3.984,0,0,0,300.224,47.118Z" transform="translate(-4.616 -2.26)"/>
</svg>
